solid AssimpScene
 facet normal 0 -1 0
  outer loop
  vertex 1.5748031 -1.1811024 -0.19685039
  vertex 1.5748031 -1.1811024 0.19685039
  vertex -1.5748031 -1.1811024 -0.19685039
  endloop
 endfacet

 facet normal 0 -1 0
  outer loop
  vertex -1.5748031 -1.1811024 -0.19685039
  vertex 1.5748031 -1.1811024 0.19685039
  vertex -1.5748031 -1.1811024 0.19685039
  endloop
 endfacet

 facet normal 1 -3.0616173e-16 0
  outer loop
  vertex 1.5748031 -1.1811024 -0.19685039
  vertex 1.5748031 1.1811024 -0.19685039
  vertex 1.5748031 -1.1811024 0.19685039
  endloop
 endfacet

 facet normal 1 -3.0616173e-16 0
  outer loop
  vertex 1.5748031 -1.1811024 0.19685039
  vertex 1.5748031 1.1811024 -0.19685039
  vertex 1.5748031 1.1811024 0.19685039
  endloop
 endfacet

 facet normal 0 1 0
  outer loop
  vertex -1.5748031 1.1811024 -0.19685039
  vertex -1.5748031 1.1811024 0.19685039
  vertex 1.5748031 1.1811024 -0.19685039
  endloop
 endfacet

 facet normal 0 1 0
  outer loop
  vertex 1.5748031 1.1811024 -0.19685039
  vertex -1.5748031 1.1811024 0.19685039
  vertex 1.5748031 1.1811024 0.19685039
  endloop
 endfacet

 facet normal -1 3.0616173e-16 0
  outer loop
  vertex -1.5748031 1.1811024 -0.19685039
  vertex -1.5748031 -1.1811024 -0.19685039
  vertex -1.5748031 1.1811024 0.19685039
  endloop
 endfacet

 facet normal -1 3.0616173e-16 0
  outer loop
  vertex -1.5748031 1.1811024 0.19685039
  vertex -1.5748031 -1.1811024 -0.19685039
  vertex -1.5748031 -1.1811024 0.19685039
  endloop
 endfacet

 facet normal 0 0 -1
  outer loop
  vertex 1.5748031 -1.1811024 -0.19685039
  vertex -1.5748031 -1.1811024 -0.19685039
  vertex 1.5748031 1.1811024 -0.19685039
  endloop
 endfacet

 facet normal 0 0 -1
  outer loop
  vertex 1.5748031 1.1811024 -0.19685039
  vertex -1.5748031 -1.1811024 -0.19685039
  vertex -1.5748031 1.1811024 -0.19685039
  endloop
 endfacet

 facet normal 0 0 1
  outer loop
  vertex -1.5748031 -1.1811024 0.19685039
  vertex 1.5748031 -1.1811024 0.19685039
  vertex -1.5748031 1.1811024 0.19685039
  endloop
 endfacet

 facet normal 0 0 1
  outer loop
  vertex -1.5748031 1.1811024 0.19685039
  vertex 1.5748031 -1.1811024 0.19685039
  vertex 1.5748031 1.1811024 0.19685039
  endloop
 endfacet

endsolidAssimpScene
